# xmcd
#
# Track frame offsets:
#	150
#	19407
#	35755
#	53716
#	66400
#	80805
#	97122
#	115407
#	132560
#	152217
#	170147
#
# Disc length: 2598 seconds
#
# Revision: 0
# Processed by: cddbd v1.5.1PL2 Copyright (c) Steve Scherf et al.
# Submitted via: EasyCDDAExtractor 10.0.1.1
#
DISCID=a90a240b
DTITLE=Scott Hall - A Matter Of Time
DYEAR=2003
DGENRE=Country
TTITLE0=A Matter Of Time
TTITLE1=True Hearts
TTITLE2=I Can't Lie To Myself
TTITLE3=The Rodeo
TTITLE4=Two Loves Too Late
TTITLE5=You Don't Live Here Anymore
TTITLE6=The Angel In The Girl
TTITLE7=Paradise Texas
TTITLE8=Know What You Stand To Lose
TTITLE9=Home
TTITLE10=Grandads Song
EXTD=
EXTT0=
EXTT1=
EXTT2=
EXTT3=
EXTT4=
EXTT5=
EXTT6=
EXTT7=
EXTT8=
EXTT9=
EXTT10=
PLAYORDER=
